<svg width="131" height="32" viewBox="0 0 131 32" fill="none" xmlns="http://www.w3.org/2000/svg">
<g clip-path="url(#clip0_524_2)">
<path d="M60.9 14.3V15.9C62.1 15.9 63.2 15.9 64.4 16.1C65.4 16.2 66.4 16.4 67.2 17C68 17.5 68.4 18.4 68.4 19.3V27C68.4 27.2 68.3 27.4 68.2 27.5C66.5 29.2 64.7 30 63 30C58.8 30 55.8 25.4 55.3 17.8C55.3 17.3 55.2 15.6 55.3 14.6C55.8 6.4 59.1 1.8 63.3 1.8C66.8 1.8 69.8 4.4 71.9 11.3H72.9L72.8 3.7C71.4 1.8 67.7 0 63.2 0C59.1 0 55.4 1.9 52.9 5.1C49.6 9.5 48.7 15.6 50.1 20.9C51 24.4 52.9 27.6 55.8 29.8C57.7 31.2 60.1 32 62.5 32C64.2 32 66.2 31.4 67.8 30.3C68.8 29.6 70.1 29.6 71.1 30.2L73 31.3H73.9V19.2C73.9 16.9 74.7 16.2 77.4 15.9V14.3H60.9V14.3Z" fill="black"/>
<path d="M24.6 20.2002C21.5 24.4002 19.7 26.8002 18.2 28.2002C17 29.3002 16 29.5002 14 29.5002H7.7C7.6 29.5002 7.5 29.4002 7.6 29.3002L23.8 2.7002L23 0.700195H3.2L0 11.1002L0.9 11.5002C3.9 7.4002 5.7 5.1002 7 3.8002C8.1 2.7002 9.2 2.6002 11 2.6002H17C17.1 2.6002 17.2 2.7002 17.1 2.8002L1 29.3002L1.8 31.3002H22.2L25.5 20.6002L24.6 20.2002Z" fill="black"/>
<path d="M38.7001 16.1002C37.7001 15.8002 34.8 15.9002 34.8 15.9002C34.6 15.9002 34.5 16.0002 34.5 16.2002V29.2002C34.5 29.4002 34.6 29.5002 34.8 29.5002H38.6C40.2 29.5002 41.1 29.4002 42.1 28.5002C43.3 27.4002 44.8001 25.4002 47.4001 21.9002L48.3 22.3002L45.5 31.4002H26.3V30.0002C26.3 30.0002 26.9 30.0002 27.3 29.9002C27.8 29.8002 28.3 29.6002 28.6 29.1002C28.9 28.7002 29 28.2002 29 27.8002V4.3002C29 3.8002 28.9 3.4002 28.6 3.0002C28.3 2.6002 27.8 2.3002 27.3 2.2002C26.9 2.1002 26.3 2.1002 26.3 2.1002V0.700195H45.4001L48.2001 9.8002L47.3 10.2002C44.8 6.7002 43.2 4.7002 42 3.6002C41 2.7002 40.1 2.6002 38.5 2.6002H34.7001C34.5001 2.6002 34.4001 2.7002 34.4001 2.9002V14.0002C34.4001 14.2002 34.5001 14.3002 34.7001 14.3002C34.7001 14.3002 37.0001 14.3002 37.9001 14.2002C39.0001 14.0002 39.5 13.4002 39.6 12.2002C39.6 11.4002 39.2001 9.7002 39.2001 9.5002H40.6L44 20.2002H42.5C41.6 18.1002 41.0001 16.8002 38.7001 16.1002Z" fill="black"/>
<path d="M80.3001 4.2002C78.9001 2.5002 78.1001 2.1002 76.1001 2.1002V0.700195H85.1001L98.8001 24.2002C98.9001 24.3002 99.0001 24.3002 99.0001 24.1002V6.0002C99.0001 5.2002 98.8001 4.3002 98.3001 3.6002C97.7001 2.8002 96.8001 2.4002 95.8001 2.2002C95.8001 2.2002 95.2001 2.1002 94.0001 2.1002V0.700195H105V2.1002C103.7 2.2002 102.4 2.5002 101.6 3.6002C101.1 4.3002 100.9 5.1002 100.9 6.0002V31.3002H96.4001L82.6001 7.8002C82.5001 7.7002 82.4001 7.7002 82.4001 7.9002V26.0002C82.4001 26.8002 82.6001 27.7002 83.1001 28.4002C84.1001 29.8002 86.0001 29.9002 87.6001 29.9002V31.3002H76.4001V29.9002C77.7001 29.8002 79.0001 29.5002 79.8001 28.4002C80.3001 27.7002 80.5001 26.9002 80.5001 26.0002V4.8002C80.5001 4.6002 80.4001 4.4002 80.3001 4.2002Z" fill="black"/>
<path d="M118.8 21.4002H110.2C110.1 21.4002 110 21.3002 110.1 21.2002L114.5 7.9002C114.5 7.8002 114.7 7.8002 114.7 7.9002L119 21.2002C119 21.3002 118.9 21.4002 118.8 21.4002ZM126.6 26.5002L118.1 0.700195H110.1V2.1002C111.7 2.1002 111.9 2.2002 112.2 2.3002C112.7 2.6002 113.2 3.2002 113.5 4.2002C113.5 4.2002 113.6 4.4002 113.5 4.7002L106.2 26.8002C105.5 28.9002 104.6 29.6002 102.9 29.8002V31.2002H112.2V29.8002C109.5 29.8002 108.6 29.2002 108.6 29.2002C107.5 28.6002 108.1 26.8002 108.1 26.8002L109.2 23.3002C109.3 23.1002 109.5 22.9002 109.7 22.9002H119.1C119.3 22.9002 119.5 23.0002 119.6 23.3002L120.7 26.8002C120.8 27.3002 121 27.9002 120.9 28.4002C120.7 29.3002 119.7 29.5002 118.9 29.6002C118.3 29.7002 117.8 29.7002 117.2 29.7002V31.1002H131V29.7002C128.5 29.6002 127.4 28.7002 126.6 26.5002Z" fill="black"/>
</g>
<defs>
<clipPath id="clip0_524_2">
<rect width="131" height="32" fill="white"/>
</clipPath>
</defs>
</svg>
